<svg xmlns="http://www.w3.org/2000/svg" viewBox="0 0 512 512">
  <defs>
    <linearGradient id="grad1" x1="0%" y1="0%" x2="100%" y2="100%">
      <stop offset="0%" style="stop-color:#ff7043;stop-opacity:1" />
      <stop offset="100%" style="stop-color:#e66038;stop-opacity:1" />
    </linearGradient>
  </defs>
  <rect width="512" height="512" rx="100" fill="#1a3b5d"/>
  <path d="M256 80c-44.2 0-80 35.8-80 80 0 19.8 7.2 38 19.1 52l-24.1 24.1c-9.4 9.4-9.4 24.6 0 33.9l16 16c9.4 9.4 24.6 9.4 33.9 0l35.1-35.1L320 245.9l16-16c9.4-9.4 9.4-24.6 0-33.9l-24.1-24.1c11.9-14 19.1-32.2 19.1-52 0-44.2-35.8-80-80-80z" fill="url(#grad1)"/>
  <ellipse cx="256" cy="160" rx="48" ry="40" fill="#fff5e6"/>
  <path d="M160 288c0-35.3 28.7-64 64-64h64c35.3 0 64 28.7 64 64v112c0 17.7-14.3 32-32 32H192c-17.7 0-32-14.3-32-32V288z" fill="url(#grad1)"/>
  <rect x="192" y="336" width="128" height="64" rx="8" fill="#fff5e6"/>
</svg>